<?xml version="1.0" standalone="no"?><!DOCTYPE svg PUBLIC "-//W3C//DTD SVG 1.1//EN" "http://www.w3.org/Graphics/SVG/1.1/DTD/svg11.dtd">
<svg t="1701170484364"
	class="icon" viewBox="0 0 1024 1024" version="1.1" xmlns="http://www.w3.org/2000/svg" p-id="22940"
	xmlns:xlink="http://www.w3.org/1999/xlink" width="200" height="200">
	<path
		d="M941.098667 128H312.32a10.112 10.112 0 0 0-10.154667 9.984v172.032a10.112 10.112 0 0 0 10.154667 9.984h628.778667a10.112 10.112 0 0 0 10.154666-9.984V137.984A10.112 10.112 0 0 0 941.098667 128z m-62.848 120.021333H375.168V200.021333h503.082667v48zM941.098667 704h-465.066667a10.112 10.112 0 0 0-10.154667 9.984v171.989333a10.112 10.112 0 0 0 10.154667 9.984h465.066667a10.112 10.112 0 0 0 10.154666-9.984v-171.989333a10.112 10.112 0 0 0-10.154666-9.984z m-62.848 120.021333h-339.2v-48h339.2z m-402.005334-216.021333h463.36a10.112 10.112 0 0 0 10.154667-9.984V425.984a10.112 10.112 0 0 0-10.154667-9.984h-463.36a10.112 10.112 0 0 0-10.154666 9.984v171.989333a10.112 10.112 0 0 0 10.154666 10.026667z m62.848-119.978667h337.664v48h-337.664zM366.933333 548.010667a36.010667 36.010667 0 1 0 0-71.978667H176.469333V313.002667A95.829333 95.829333 0 0 0 139.989333 128a95.829333 95.829333 0 0 0-36.48 185.002667V800a36.224 36.224 0 0 0 36.48 36.010667H366.933333a36.010667 36.010667 0 1 0 0-71.978667H176.469333v-216.021333z"
		fill="#13227a" p-id="22941"></path>
</svg>